<svg aria-hidden="true" style="position: absolute; width: 0; height: 0; overflow: hidden;" version="1.1" xmlns="http://www.w3.org/2000/svg" xmlns:xlink="http://www.w3.org/1999/xlink">
<defs>
<symbol id="arrow_down" viewBox="0 0 55 32">
<path fill="none" stroke="#c7ccdc" stroke-width="9.1429" stroke-miterlimit="4" stroke-linecap="butt" stroke-linejoin="miter" style="stroke: var(--color1, #c7ccdc)" d="M4.571 4.571l22.857 18.286 22.857-18.286"></path>
</symbol>
<symbol id="logout" viewBox="0 0 32 32">
<path fill="#cbccd0" style="fill: var(--color2, #cbccd0)" d="M20 28h-16v-24h16v2h4v-6h-24v32h24v-6h-4v2h-0z"></path>
<path fill="#cbccd0" style="fill: var(--color2, #cbccd0)" d="M24.586 8.586l-2.828 2.828 2.586 2.586h-10.344v4h10.344l-2.586 2.586 2.828 2.828 7.414-7.414-7.414-7.414z"></path>
</symbol>
<symbol id="technique" viewBox="0 0 56 56">
  <g clip-path="url(#a)"  >
    <path d="M37.99 16.97a1.093 1.093 0 1 0 0 2.186 1.093 1.093 0 0 0 0-2.187ZM18.117 36.842a1.093 1.093 0 1 0 0 2.187 1.093 1.093 0 0 0 0-2.187Z"/>
    <path d="M54.694 6.729a1.093 1.093 0 0 0-1.024.295l-4.534 4.57h-2.174l-2.393-2.48V6.91l4.47-4.536a1.093 1.093 0 0 0-.43-1.804A10.91 10.91 0 0 0 45.116 0c-3.562 0-6.799 1.661-8.88 4.558-1.947 2.71-2.547 6.034-1.687 9.213l-8.057 8.057L13.07 8.375v-2.64c0-.384-.202-.74-.531-.938L4.805.156A1.093 1.093 0 0 0 3.47.321L.376 3.413A1.095 1.095 0 0 0 .211 4.75l4.64 7.733c.198.33.554.531.938.531l2.64.001 13.423 13.453-8.026 8.026c-3.18-.86-6.504-.258-9.217 1.69C1.715 38.264.055 41.5.055 45.063c0 1.194.192 2.37.57 3.492a1.093 1.093 0 0 0 1.813.421l4.534-4.57h2.186l2.49 2.49v2.187l-4.57 4.534a1.094 1.094 0 0 0 .421 1.813c1.123.378 2.298.57 3.493.57 3.562 0 6.797-1.66 8.877-4.555 1.949-2.713 2.55-6.037 1.69-9.217l6.446-6.445 1.477 1.603-.678.678a1.094 1.094 0 1 0 1.547 1.547l.614-.614 13.854 15.049.031.032a6.561 6.561 0 0 0 9.282 0 6.573 6.573 0 0 0 0-9.281l-.035-.033-15.072-13.827.607-.607a1.093 1.093 0 1 0-1.547-1.547l-.673.674-1.607-1.475 6.477-6.477c.921.246 1.871.37 2.834.37 6.03 0 10.937-4.906 10.937-10.936 0-1.195-.192-2.37-.57-3.493-.121-.36-.42-.63-.79-.716Zm-45.038 4.42a1.083 1.083 0 0 0-.774-.31H6.41L2.527 4.356 4.412 2.47l6.47 3.883v2.474c0 .29.115.567.32.772l13.744 13.775-1.547 1.547L9.656 11.149Zm27.821 21.335L52.6 46.358a4.375 4.375 0 0 1-6.189 6.187L32.514 37.448l4.964-4.964Zm-1.613-1.48-4.834 4.833-1.477-1.604 4.704-4.704 1.607 1.475Zm9.252-11.317a8.74 8.74 0 0 1-2.795-.456 1.096 1.096 0 0 0-1.123.263L19.55 41.144a1.093 1.093 0 0 0-.263 1.122c.91 2.7.474 5.58-1.194 7.902a8.65 8.65 0 0 1-7.1 3.643c-.32 0-.639-.017-.954-.05l3.474-3.448c.207-.205.323-.484.323-.776v-3.094c0-.29-.115-.569-.32-.774l-3.131-3.131a1.094 1.094 0 0 0-.774-.32H6.516c-.291 0-.57.116-.776.323l-3.447 3.474a8.848 8.848 0 0 1-.051-.954 8.648 8.648 0 0 1 3.643-7.1c2.322-1.668 5.202-2.103 7.902-1.194.394.133.829.031 1.123-.263l21.649-21.649c.294-.294.395-.728.263-1.122-.91-2.7-.476-5.579 1.191-7.9a8.651 8.651 0 0 1 7.102-3.645c.33 0 .658.018.983.054l-3.402 3.452c-.202.205-.314.48-.314.768v3.094c0 .284.11.556.306.76l3.022 3.13c.206.215.49.335.787.335h3.094c.292 0 .571-.116.777-.324l3.446-3.473c.034.315.051.634.051.954 0 4.824-3.925 8.75-8.75 8.75Z"/>
    <path d="M34.124 20.382 20.437 34.07a1.094 1.094 0 0 0 1.547 1.547l13.687-13.687a1.093 1.093 0 1 0-1.547-1.547ZM47.945 49.438a1.094 1.094 0 0 0 1.545-1.55l-9.86-9.827a1.094 1.094 0 0 0-1.544 1.55l9.86 9.827Z"/>
  </g>
  <defs>
    <clipPath>
      <path fill="#fff" d="M0 0h55.891v56H0z"/>
    </clipPath>
  </defs>
</symbol>
<symbol id="housing" viewBox="0 0 56 32"  >
  <path d="M53.225 8.916h-1.113V4.78A4.438 4.438 0 0 0 47.679.348H31.613A4.43 4.43 0 0 0 28 2.216 4.43 4.43 0 0 0 24.387.348H14.294a.82.82 0 0 0 0 1.64h10.093a2.796 2.796 0 0 1 2.793 2.793v8.204c-.017-.017-.036-.032-.053-.048a5.364 5.364 0 0 0-3.62-1.43H9.842a2.813 2.813 0 0 0-1.86-2.437 2.726 2.726 0 0 0-.91-.154H5.53V4.78A2.796 2.796 0 0 1 8.32 1.988h2.692a.82.82 0 1 0 0-1.64H8.32A4.438 4.438 0 0 0 3.888 4.78v4.135H2.775A2.779 2.779 0 0 0 0 11.69v8.565a5.786 5.786 0 0 0 5.78 5.78h.412l-.899 2.418c-.566 1.524.6 3.198 2.223 3.198h1.32c.739 0 1.446-.352 1.891-.94l3.537-4.676h27.473l3.536 4.675c.445.59 1.152.941 1.891.941h1.32c1.625 0 2.79-1.674 2.223-3.198l-.9-2.418h.413a5.786 5.786 0 0 0 5.78-5.78v-8.565a2.779 2.779 0 0 0-2.775-2.775ZM28.82 4.78a2.796 2.796 0 0 1 2.793-2.793h16.066a2.796 2.796 0 0 1 2.792 2.793v4.135h-1.544c-1.09 0-2.137.7-2.56 1.704-.119.281-.19.583-.21.888H32.495a5.38 5.38 0 0 0-3.674 1.477V4.781ZM9.85 13.148h13.657a3.678 3.678 0 0 1 3.674 3.674v1.166H9.849v-4.84Zm-.43 16.573a.735.735 0 0 1-.583.29h-1.32a.737.737 0 0 1-.685-.985l1.111-2.99h4.264L9.42 29.721Zm39.065.29h-1.32a.735.735 0 0 1-.583-.29l-2.788-3.685h4.265l1.111 2.99a.738.738 0 0 1-.685.985Zm1.736-5.616H5.78a4.144 4.144 0 0 1-4.14-4.139v-8.565c0-.626.51-1.135 1.135-1.135h4.298c.626 0 1.135.51 1.135 1.135v7.117c0 .453.367.82.82.82h30.13a.82.82 0 1 0 0-1.64H28.82V16.82a3.677 3.677 0 0 1 3.673-3.673h13.658v4.84H42.44a.82.82 0 0 0 0 1.64h4.532a.82.82 0 0 0 .82-.82v-7.117c0-.626.51-1.135 1.135-1.135h4.297c.626 0 1.135.51 1.135 1.135v8.565a4.144 4.144 0 0 1-4.139 4.14Z"  />
</symbol>
<symbol id="transport" viewBox="0 0 50 44" >
  <path d="m47.66 16.436-1.074-1.293-3.774-11.547C42.169 1.646 40.524.354 38.69.342H11.736c-1.834 0-3.479 1.304-4.122 3.254L3.894 15l-1.55 1.627c-1.35 1.305-2.13 3.22-2.13 5.23V38.68c.01 2.752 1.982 4.978 4.407 4.978h2.782c2.425 0 4.396-2.226 4.407-4.978v-2.44h26.142v2.44c.01 2.752 1.982 4.978 4.407 4.978h2.782c2.425 0 4.396-2.226 4.407-4.978V21.414c-.01-1.879-.686-3.674-1.887-4.978ZM9.597 4.41c.337-1.017 1.191-1.675 2.14-1.675H38.7c.948 0 1.802.67 2.14 1.675l3.288 10.052h-2.456c-.58-4.488-4.258-7.587-8.211-6.917-3.152.527-5.63 3.339-6.093 6.916H6.307l3.29-10.05Zm29.927 10.051H29.498c.58-3.147 3.3-5.157 6.072-4.499 1.982.479 3.531 2.238 3.953 4.5ZM9.7 38.681c-.01 1.435-1.033 2.584-2.298 2.584H4.621c-1.265 0-2.288-1.149-2.298-2.585v-3.135c.632.467 1.465.694 2.298.694H9.7v2.441Zm37.738 0c-.01 1.435-1.033 2.584-2.298 2.584H42.36c-1.266 0-2.288-1.16-2.299-2.585v-2.44h5.081c.833 0 1.666-.228 2.298-.695v3.135Zm-2.298-4.835H4.621c-1.255.012-2.288-1.125-2.298-2.56v-9.43c0-1.316.516-2.572 1.402-3.422l.042-.048L5.2 16.855h39.92l1.012 1.232c.01.024.042.036.053.06.79.85 1.244 2.034 1.244 3.267v9.871h.01c-.01 1.424-1.043 2.573-2.298 2.561Z"  />
</symbol>
<symbol id="health" viewBox="0 0 51 56"  >
  <path d="m50.209 31.2-.89-14.534c-.058-.942-.44-1.8-1.076-2.42-.636-.618-1.45-.92-2.29-.852-1.652.135-2.933 1.693-2.916 3.548l.105 11.848-4.583 6.574c-.731 1.05-1.945 1.47-3.046 1.154l4.986-7.252c.875-1.272.73-3.116-.331-4.198-.566-.577-1.299-.862-2.063-.802-.764.06-1.454.456-1.943 1.116l-7.533 10.16c-1.242 1.675-1.916 3.797-1.897 5.975l.117 13.492c.005.538.395.971.875.972l12.543.02c.246 0 .48-.116.646-.319.166-.202.249-.474.228-.748l-.512-6.604 8.326-12.394c.912-1.358 1.358-3.04 1.254-4.736Zm-2.655 3.556L39.027 47.45c-.13.194-.192.434-.173.675l.458 5.911-10.719-.016-.108-12.522c-.015-1.714.515-3.384 1.493-4.703l7.532-10.16a.984.984 0 0 1 .717-.411.95.95 0 0 1 .762.296c.391.399.445 1.08.122 1.549l-5.659 8.23a1.07 1.07 0 0 0-.17.759c.04.269.178.507.38.657 2.025 1.504 4.783 1.002 6.279-1.143l4.77-6.844a1.06 1.06 0 0 0 .186-.614l-.108-12.192c-.007-.82.56-1.51 1.291-1.57a1.29 1.29 0 0 1 1.014.377c.282.274.451.654.477 1.071l.89 14.534c.075 1.226-.247 2.44-.907 3.422ZM14.624 25.381c-.49-.66-1.18-1.056-1.943-1.116-.764-.06-1.497.226-2.063.803-1.061 1.081-1.206 2.925-.331 4.198l4.986 7.252c-1.1.316-2.315-.105-3.046-1.154L7.643 28.79l.105-11.848c.016-1.855-1.265-3.414-2.916-3.548-.84-.068-1.654.234-2.29.852-.636.619-1.019 1.478-1.076 2.42L.577 31.2c-.104 1.696.341 3.378 1.254 4.736l8.326 12.393-.512 6.605c-.021.274.061.546.228.748.166.203.4.318.645.318h.001l12.542-.02c.48 0 .87-.433.875-.971l.117-13.492c.02-2.178-.654-4.3-1.897-5.976l-7.532-10.16Zm7.568 28.638-10.718.017.458-5.911a1.067 1.067 0 0 0-.173-.675L3.231 34.756c-.66-.981-.98-2.197-.906-3.422l.89-14.534c.026-.417.195-.797.477-1.071a1.3 1.3 0 0 1 1.013-.378c.732.06 1.299.75 1.291 1.571l-.108 12.192c-.002.222.064.438.186.614l4.771 6.844c1.496 2.145 4.253 2.647 6.278 1.143a.998.998 0 0 0 .38-.657 1.072 1.072 0 0 0-.17-.76l-5.658-8.23c-.323-.469-.27-1.15.122-1.548a.952.952 0 0 1 .762-.297.985.985 0 0 1 .717.412l7.532 10.16c.978 1.319 1.508 2.989 1.493 4.703l-.109 12.521ZM42.558 11.043c0-2.95-1.026-5.723-2.888-7.809C37.808 1.15 35.332 0 32.698 0c-2.634 0-5.11 1.149-6.972 3.234l-.333.374-.333-.374C23.197 1.15 20.72 0 18.088 0c-2.634 0-5.11 1.149-6.972 3.234-3.844 4.306-3.844 11.312 0 15.617l13.657 15.297a.83.83 0 0 0 .62.287.829.829 0 0 0 .62-.287L39.67 18.85c1.862-2.085 2.888-4.858 2.888-7.808ZM25.393 32.066 12.355 17.463c-3.16-3.54-3.16-9.3 0-12.84 1.531-1.716 3.567-2.66 5.733-2.66 2.165 0 4.201.944 5.732 2.66l.953 1.066a.831.831 0 0 0 .62.288.832.832 0 0 0 .62-.288l.952-1.067c1.532-1.715 3.568-2.66 5.733-2.66 2.166 0 4.202.945 5.733 2.66 1.531 1.715 2.374 3.995 2.374 6.42 0 2.426-.843 4.707-2.374 6.422L25.393 32.066Z"  />
</symbol>
<symbol id="entertainment" viewBox="0 0 51 56"  >
  <path d="M50.226 27.517 48 25.267V3.869l1.87-1.89a.955.955 0 0 0 0-1.34.932.932 0 0 0-1.327 0l-1.87 1.889H25.49L23.265.277a.932.932 0 0 0-1.328 0 .956.956 0 0 0 0 1.342l2.131 2.153-6.609 28.294a2.714 2.714 0 0 0-.472 2.462 2.677 2.677 0 0 0 2.026 1.866l4.214.864a2.729 2.729 0 0 1 1.864 1.4c.386.726.431 1.58.125 2.343a2.724 2.724 0 0 1-3.099 1.664l-15.79-3.38c-2.377-.509-4.774.855-5.576 3.172a4.935 4.935 0 0 0 .372 4.056 4.844 4.844 0 0 0 3.282 2.367l.066.013A4.175 4.175 0 0 1 7.37 51.05a4.253 4.253 0 0 1 .17 3.634.952.952 0 0 0 .502 1.242.939.939 0 0 0 1.229-.508 6.16 6.16 0 0 0-.246-5.263 6.047 6.047 0 0 0-4.198-3.125l-.066-.013a2.966 2.966 0 0 1-2.01-1.45 3.022 3.022 0 0 1-.228-2.483 2.97 2.97 0 0 1 3.415-1.943l15.79 3.38a4.596 4.596 0 0 0 5.228-2.807 4.687 4.687 0 0 0-.21-3.953 4.602 4.602 0 0 0-3.146-2.362l-4.214-.864a.78.78 0 0 1-.601-.554.801.801 0 0 1 .063-.619l27.919-6.656 2.131 2.153a.932.932 0 0 0 1.328 0 .956.956 0 0 0 0-1.342ZM44.794 4.424l-8.712 8.802-8.713-8.802h17.425Zm-19.165.925 9.125 9.219-14.762 14.914L25.63 5.349ZM21.32 30.823 36.082 15.91l9.124 9.218-23.886 5.695Zm24.802-7.453-8.713-8.802 8.713-8.802V23.37Z"  />
</symbol>
<symbol id="products" viewBox="0 0 56 56">
  <path d="m56.938 44.58-.215-1.297c-.137-.829-.783-1.43-1.536-1.43-.095 0-.19.01-.284.029l-4.368.899 1.978-1.482c.518-.388.78-1.082.667-1.77a1.888 1.888 0 0 0-.175-.54l-.599-1.187a1.608 1.608 0 0 0-.959-.831 1.407 1.407 0 0 0-.606-.043c.22-1.361.334-2.752.334-4.168 0-.628-.337-1.168-.819-1.408a7.866 7.866 0 0 0 .05-5.355 1.132 1.132 0 0 0-.222-.38.996.996 0 0 0-.337-.248 5.684 5.684 0 0 0-2.635-.493c-.114-2.576-2.017-4.632-4.34-4.632-.307 0-.605.037-.893.104a8.456 8.456 0 0 0-.384-4.061 1.159 1.159 0 0 0-.228-.391 1.006 1.006 0 0 0-.342-.253 6.123 6.123 0 0 0-2.509-.54 6.21 6.21 0 0 0-3.612 1.17 9.351 9.351 0 0 0-1.94-3.477 1.319 1.319 0 0 0-.99-.46 1.32 1.32 0 0 0-.99.46l-3.99 4.478c-.738-.737-1.71-1.178-2.764-1.178-.24 0-.48.023-.718.07-.86.167-1.65.638-2.257 1.328a3.787 3.787 0 0 0-2.524-.396 3.819 3.819 0 0 0-.548.15v-3.45c0-2.377-1.706-4.313-3.815-4.354V7.487c.646-.126 1.139-.756 1.139-1.514V1.538C15.507.69 14.89 0 14.133 0h-6.7C6.676 0 6.06.69 6.06 1.538v4.435c0 .758.493 1.388 1.138 1.514v1.956c-2.11.041-3.815 1.978-3.815 4.355v26.934a9.297 9.297 0 0 0-2.669 6.553c0 5.05 3.958 9.16 8.823 9.16l32.98-.011c1.125 0 2.184-.555 2.904-1.52.701-.94 1-2.16.827-3.364l6.588 1.325a1.445 1.445 0 0 0 1.187-.299c.342-.273.574-.698.636-1.163l.178-1.341a1.944 1.944 0 0 0-.008-.575c-.114-.686-.58-1.23-1.188-1.386l-2.322-.596 4.364-.898a1.55 1.55 0 0 0 1.006-.729c.236-.384.325-.849.249-1.308Zm-9.42-17.867c.496 0 .984.088 1.453.261a5.784 5.784 0 0 1-.394 4.244h-2.22l.708-.795c.322-.36.321-.945-.001-1.305a.763.763 0 0 0-1.165.001l-.375.421a4.422 4.422 0 0 0-.886-1.704c.818-.727 1.822-1.123 2.88-1.123Zm-4.647-4.623c1.488 0 2.699 1.36 2.699 3.031l-.002.092a6.162 6.162 0 0 0-2.352 1.563 3.51 3.51 0 0 0-.332-.124c-.241-1.458-1.118-2.627-2.278-3.173.481-.835 1.316-1.39 2.265-1.39Zm-4.355-5.141c.56 0 1.11.101 1.64.302a6.422 6.422 0 0 1-.204 4.262 4.924 4.924 0 0 0-1.056 1.639c-.147.01-.294.028-.44.056a3.673 3.673 0 0 0-1.751.895 4.912 4.912 0 0 0-.623-.97l1.89-2.12c.32-.361.32-.946-.002-1.305a.763.763 0 0 0-1.166.001l-2.065 2.318a3.97 3.97 0 0 0-1.264-.42 6.015 6.015 0 0 1 1.408-2.968c.971-1.09 2.261-1.69 3.633-1.69Zm-6.314 14.27h-.714c-.12-.344-.418-.587-.767-.587-.349 0-.646.243-.766.586h-.84a1.007 1.007 0 0 0-.12-1.135.763.763 0 0 0-1.166.001l-.776.872a.93.93 0 0 0-.163.262h-1.677a7.921 7.921 0 0 1-1.057-3.724h13.072a7.921 7.921 0 0 1-1.056 3.724h-1.746a.926.926 0 0 0-.162-.262l-.777-.872a.763.763 0 0 0-1.165-.001c-.276.308-.315.78-.12 1.135Zm-1.916-5.57c.31-1.29 1.36-2.241 2.605-2.241 1.244 0 2.294.951 2.605 2.24h-5.21ZM31.97 14.3a7.615 7.615 0 0 1 1.556 3.259 7.676 7.676 0 0 0-1.046 1.68.755.755 0 0 0-.43-.137h-1.097c-.455 0-.824.413-.824.923s.369.923.824.923h.963a8.518 8.518 0 0 0-.127.773c-.327.096-.64.233-.932.407-.55-1.061-1.459-1.852-2.536-2.17l-.001-.007a5.087 5.087 0 0 0-.331-1.182l3.98-4.47Zm-14.895 8.327a3.043 3.043 0 0 1-.11-.462c-.236-1.526.683-2.984 2.048-3.25.144-.028.29-.043.434-.043a2.32 2.32 0 0 1 1.5.561c.182.152.411.213.634.17a.824.824 0 0 0 .546-.4c.387-.653.979-1.086 1.666-1.22.145-.029.291-.043.436-.043 1.22 0 2.258.978 2.467 2.326.024.155.036.316.036.479.001.477.327.876.752.917.922.091 1.706.74 2.07 1.655a5.15 5.15 0 0 0-.953 2.33h-4.699c-.584 0-1.086.404-1.295.976a5.783 5.783 0 0 0-3.529-1.214c-.8 0-1.583.169-2.33.502a.994.994 0 0 0-.336.248c-.097.11-.172.238-.222.378a7.758 7.758 0 0 0-.384 1.64 2.944 2.944 0 0 1-.585-1.37c-.194-1.251.392-2.498 1.423-3.031.388-.2.575-.699.43-1.149Zm2.456 8.338.225.252h-1.98a5.815 5.815 0 0 1-.15-3.7 4.17 4.17 0 0 1 1.452-.262c1.242 0 2.41.543 3.289 1.53.117.131.226.269.328.411.14.708.354 1.384.63 2.021h-1.241l-1.386-1.556a.763.763 0 0 0-1.166-.001c-.322.36-.323.944-.001 1.305Zm-3.509.252h-2.937c.13-.894.61-1.656 1.277-2.105a4.29 4.29 0 0 0 1.503 1.395c.042.24.093.477.157.71ZM7.707 1.846h6.152v3.819H7.707v-3.82ZM12.72 7.51v1.93H8.846v-1.93h3.874ZM5.032 17.54h5.35c.455 0 .824-.414.824-.924s-.369-.922-.824-.922h-5.35v-1.897c0-1.385 1.002-2.51 2.234-2.51H14.3c1.232 0 2.235 1.125 2.235 2.51v1.897h-1.539c-.455 0-.824.413-.824.922 0 .51.37.923.824.923h1.539v.82c-.944 1.036-1.434 2.556-1.192 4.12l.001.01c-1.322 1.015-2.026 2.821-1.746 4.634.017.106.037.21.06.313a4.487 4.487 0 0 0-1.098.966H5.032V17.54Zm0 12.708h6.57c-.087.311-.149.635-.179.97h-.138c-.759 0-1.376.69-1.376 1.541 0 1.465.122 2.904.357 4.311a8.115 8.115 0 0 0-.726-.032c-.997 0-1.946.177-2.673.498-1.113.492-1.42 1.19-1.487 1.674a8.838 8.838 0 0 0-.349.206V30.25Zm10.433 11.337c.297.266.478.492.584.655h-.031c-.467 0-1.305-.21-2.257-.801a5.957 5.957 0 0 1-.946-.719.758.758 0 0 0-1.065 0c-.264.25-.59.5-.945.719-.953.59-1.79.801-2.257.801h-.03a3.34 3.34 0 0 1 .582-.655.99.99 0 0 0 .278-.975c-.092-.358-.366-.619-.697-.662-.804-.106-1.312-.335-1.55-.502.298-.208 1.052-.563 2.41-.563 1.123 0 1.944.265 2.338.513.251.157.557.157.807 0 .394-.248 1.216-.513 2.34-.513 1.357 0 2.111.355 2.41.563-.239.167-.747.396-1.552.502-.33.043-.604.304-.696.662a.989.989 0 0 0 .277.975Zm-1.648 11.232.028.171c.098.593.305 1.137.594 1.61H9.537c-3.956 0-7.175-3.28-7.175-7.314A7.341 7.341 0 0 1 6.08 40.88c.255.213.572.396.948.544-.15.285-.253.592-.278.912-.032.425.084.83.328 1.138.322.407.817.614 1.47.614.87 0 2.013-.386 3.055-1.033.24-.148.467-.305.68-.47.212.164.44.322.68.47 1.042.647 2.184 1.033 3.055 1.033.653 0 1.148-.207 1.47-.614.244-.308.36-.712.327-1.138a2.368 2.368 0 0 0-.277-.912c.376-.148.693-.332.947-.544a7.326 7.326 0 0 1 3.532 4.748l-5.828 2.48c-1.706.725-2.703 2.707-2.372 4.711Zm30.339.913c-.406.544-1.004.857-1.64.857h-.865l-.54-3.267c-.083-.501-.513-.832-.96-.74-.448.094-.744.575-.661 1.076l.485 2.932-2.835.002-.365-2.21c-.083-.501-.513-.832-.96-.74-.448.093-.744.575-.661 1.076l.31 1.874-6.595.003-.496-3c-.083-.502-.513-.833-.96-.74-.448.093-.743.574-.66 1.075l.44 2.666-9.628.004h-.001c-1.03 0-1.912-.818-2.099-1.946l-.028-.171c-.186-1.127.376-2.241 1.337-2.65l3.238-1.378.242 1.458c.073.445.42.755.809.755.05 0 .1-.005.151-.015.447-.093.743-.575.66-1.076l-.296-1.788 4.807-2.045c.425-.181.64-.715.478-1.191-.162-.477-.638-.716-1.063-.535l-2.237.952c-.627-2.489-2.24-4.567-4.377-5.758-.067-.483-.375-1.182-1.487-1.674-.728-.322-1.677-.499-2.673-.499-.686 0-1.341.085-1.92.24v-.558c0-.51-.368-.923-.823-.923a.766.766 0 0 0-.51.199c-.13-.963-.202-1.94-.214-2.932h26.838c.455 0 .824-.413.824-.923s-.369-.923-.824-.923h-.337a10.05 10.05 0 0 0 .821-4.001c0-.815-.556-1.485-1.265-1.561a2.095 2.095 0 0 1 1.123-.63c.126-.024.254-.037.38-.037 1.064 0 1.968.852 2.15 2.027.02.136.03.276.031.417 0 .478.327.876.752.918.985.097 1.79.926 1.96 2.017.044.29.038.576-.007.85h-.884c-.455 0-.824.413-.824.923s.37.923.824.923h6.404a23.684 23.684 0 0 1-.578 4.95l-4.465 2.953c-.273-1.065-.908-1.968-1.783-2.516a3.425 3.425 0 0 0-3.198-.264L30.304 42.1c-.425.181-.639.715-.477 1.19.161.477.638.717 1.063.536l1.211-.516.376 2.275c.074.445.42.755.81.755.05 0 .1-.005.15-.015.448-.093.744-.575.66-1.076l-.43-2.605 6.42-2.731a1.936 1.936 0 0 1 1.807.149c.554.347.937.945 1.052 1.64l1.667 10.08a2.569 2.569 0 0 1-.457 1.949Zm2.94-7.224c-.384.08-.666.45-.675.888-.008.437.259.821.64.92l6.134 1.575-.153 1.152-7.112-1.432-1.111-6.722 6.194-4.096.516 1.024-5.225 3.911c-.325.244-.452.71-.305 1.115.146.405.528.64.912.56l8.207-1.688.183 1.105-8.205 1.688Z"/>
</symbol>
<symbol id="alcohol" viewBox="0 0 41 56">
  <path d="M39.311 6.853H14.917c-.275-1.777-1.047-3.405-2.213-4.645C11.364.784 9.623 0 7.798 0 3.81 0 .565 3.734.565 8.323c0 4.59 3.245 8.323 7.233 8.323.733 0 1.452-.128 2.147-.377 1.088 1.181 2.436 2.065 3.958 2.52.984.295 1.731 1.229 1.904 2.38l.918 6.118c.324 2.161 1.37 4.035 2.943 5.276 1.193.94 1.905 2.475 1.905 4.104v12.469c-.55.401-.903 1.107-.903 1.886l.001.07c-1.804.425-3.29.816-4.418 1.163-.769.236-1.348.444-1.773.636-.395.18-1.13.513-1.13 1.288 0 1.04 1.175 1.218 2.12 1.361.812.123 1.937.225 3.343.304 2.375.134 4.782.156 4.806.156h.011c.024 0 2.43-.023 4.806-.156 1.406-.079 2.53-.181 3.342-.304.945-.143 2.121-.32 2.121-1.361 0-.823-.66-1.248-3.069-1.975-1.46-.44-3.279-.886-4.585-1.19a2.396 2.396 0 0 0-.57-1.572V36.666c0-1.628.713-3.162 1.906-4.103 1.573-1.241 2.619-3.115 2.943-5.276l.918-6.118c.172-1.151.92-2.085 1.903-2.38 3.299-.987 5.78-3.98 6.564-7.666l.009-.042c.165-.793.254-1.617.254-2.46v-.776c0-.547-.386-.992-.86-.992Zm-31.513 8.13c-3.192 0-5.788-2.987-5.788-6.66s2.596-6.661 5.788-6.661c1.46 0 2.854.627 3.926 1.766.87.925 1.464 2.118 1.72 3.425h-.74c-.572-2.533-2.578-4.365-4.906-4.365-2.796 0-5.07 2.618-5.07 5.835s2.275 5.835 5.07 5.835a4.4 4.4 0 0 0 .625-.046c.139.26.287.512.444.758a5.05 5.05 0 0 1-1.069.114ZM10.01 5.78a.657.657 0 0 0-1.022 0l-.215.248a.92.92 0 0 0-.182.826h-.653c-.475 0-.862.445-.862.992v.776c0 .843.09 1.666.255 2.46a11.65 11.65 0 0 0 .388 1.413c-1.963-.05-3.547-1.901-3.547-4.171 0-2.301 1.627-4.173 3.626-4.173 1.535 0 2.874 1.112 3.394 2.703h-1.11a.926.926 0 0 0-.072-1.074Zm15.842 46.84c2.54.588 4.133 1.033 5.13 1.355-1.824.206-4.75.341-7.358.364-2.606-.023-5.532-.158-7.357-.364.954-.308 2.453-.729 4.803-1.28.65-.151 1.1-.852 1.046-1.627a.67.67 0 0 1-.002-.045c0-.258.152-.484.368-.551.316-.097.536-.426.536-.803V36.666c0-1.093-.24-2.154-.679-3.098.404.03.844.046 1.285.046.441 0 .882-.016 1.286-.046a7.357 7.357 0 0 0-.679 3.099v13.17c0 .284.127.55.337.702a.593.593 0 0 1 .232.52c-.042.74.41 1.411 1.052 1.56ZM38.728 8.62c0 .5-.036.99-.106 1.47H16.883c-.398 0-.722.373-.722.832 0 .459.323.83.722.83H38.23c-.864 2.624-2.785 4.691-5.248 5.428-1.531.458-2.694 1.913-2.963 3.706l-.918 6.117c-.257 1.716-1.087 3.203-2.336 4.188-.194.153-.77.51-.874.564-.572.259-3.957.259-4.532 0-.105-.053-.68-.41-.875-.564-1.249-.985-2.079-2.472-2.336-4.188l-.918-6.117c-.269-1.793-1.432-3.247-2.963-3.706-1.394-.417-2.614-1.26-3.567-2.389a9.146 9.146 0 0 1-1.68-3.039h4.504c.398 0 .722-.371.722-.83 0-.46-.324-.831-.722-.831H8.627c-.07-.48-.106-.972-.106-1.471v-.106h30.207v.106Z"  />
</symbol>
<symbol id="arrow_left" viewBox="0 0 32 32">
<path fill="none" stroke="#ff751d" stroke-width="5.3333" stroke-miterlimit="4" stroke-linecap="butt" stroke-linejoin="miter" style="stroke: var(--color3, #ff751d)" d="M22.667 2.667l-10.667 13.333 10.667 13.333"></path>
</symbol>
<symbol id="arrow_right" viewBox="0 0 32 32">
<path fill="none" stroke="#ff751d" stroke-width="5.3333" stroke-miterlimit="4" stroke-linecap="butt" stroke-linejoin="miter" style="stroke: var(--color3, #ff751d)" d="M9.333 2.667l10.667 13.333-10.667 13.333"></path>
</symbol>
<symbol id="arrow_back" viewBox="0 0 32 32">
<path fill="#ff751d" style="fill: var(--color3, #ff751d)" d="M32 14.222h-25.191l6.364-6.382-2.507-2.507-10.667 10.667 10.667 10.667 2.507-2.507-6.364-6.382h25.191v-3.556z"></path>
</symbol>
<symbol id="delete" viewBox="0 0 32 32">
<path  d="M28.992 7.153l-0.707-2.118c-0.269-0.807-1.021-1.349-1.871-1.349h-5.938v-1.933c0-0.966-0.786-1.753-1.752-1.753h-5.438c-0.966 0-1.752 0.786-1.752 1.753v1.933h-5.938c-0.85 0-1.603 0.542-1.872 1.349l-0.707 2.118c-0.161 0.482-0.079 1.016 0.218 1.428s0.778 0.659 1.286 0.659h0.739l1.625 20.1c0.121 1.491 1.386 2.66 2.882 2.66h12.804c1.495 0 2.761-1.169 2.882-2.66l1.625-20.1h0.409c0.508 0 0.989-0.246 1.286-0.658s0.379-0.947 0.218-1.429zM13.41 1.875h5.191v1.811h-5.191v-1.811zM23.585 29.189c-0.043 0.525-0.487 0.936-1.013 0.936h-12.804c-0.525 0-0.97-0.411-1.013-0.936l-1.614-19.949h18.056l-1.613 19.949zM4.924 7.365l0.579-1.737c0.013-0.040 0.051-0.067 0.093-0.067h20.818c0.042 0 0.079 0.027 0.093 0.067l0.579 1.737h-22.162z"></path>
<path  d="M20.595 29.122c0.017 0.001 0.033 0.001 0.050 0.001 0.495 0 0.909-0.388 0.935-0.889l0.88-16.9c0.027-0.517-0.371-0.958-0.887-0.985-0.518-0.028-0.958 0.37-0.985 0.887l-0.88 16.9c-0.027 0.517 0.37 0.958 0.887 0.985z"></path>
<path  d="M10.473 28.237c0.027 0.5 0.441 0.886 0.935 0.886 0.017 0 0.035-0.001 0.052-0.001 0.517-0.028 0.913-0.47 0.885-0.987l-0.922-16.9c-0.028-0.517-0.47-0.913-0.987-0.885s-0.913 0.47-0.885 0.987l0.922 16.9z"></path>
<path  d="M16.016 29.123c0.518 0 0.938-0.42 0.938-0.937v-16.9c0-0.518-0.42-0.938-0.938-0.938s-0.938 0.42-0.938 0.938v16.9c0 0.518 0.42 0.937 0.938 0.937z"></path>
</symbol>
<symbol id="calculator" viewBox="0 0 32 32">
<path fill="#52555f" style="fill: var(--color4, #52555f)" d="M27.25 0h-22.5c-1.551 0-2.813 1.262-2.813 2.813v26.375c0 1.551 1.262 2.812 2.813 2.812h22.5c1.551 0 2.813-1.262 2.813-2.812v-26.375c0-1.551-1.262-2.813-2.813-2.813zM28.188 29.188c0 0.517-0.421 0.937-0.938 0.937h-22.5c-0.517 0-0.938-0.42-0.938-0.937v-26.375c0-0.517 0.421-0.938 0.938-0.938h22.5c0.517 0 0.938 0.421 0.938 0.938v26.375z"></path>
<path fill="#52555f" style="fill: var(--color4, #52555f)" d="M25.375 3.75h-18.75c-0.518 0-0.938 0.42-0.938 0.938v7.625c0 0.518 0.42 0.938 0.938 0.938h18.75c0.518 0 0.937-0.42 0.937-0.938v-7.625c0-0.518-0.42-0.938-0.937-0.938zM24.437 11.375h-16.875v-5.75h16.875v5.75z"></path>
<path fill="#52555f" style="fill: var(--color4, #52555f)" d="M10.375 15.125h-3.75c-0.518 0-0.938 0.42-0.938 0.938v3.75c0 0.518 0.42 0.938 0.938 0.938h3.75c0.518 0 0.938-0.42 0.938-0.938v-3.75c0-0.518-0.42-0.938-0.938-0.938zM9.438 18.875h-1.875v-1.875h1.875v1.875z"></path>
<path fill="#52555f" style="fill: var(--color4, #52555f)" d="M10.375 22.625h-3.75c-0.518 0-0.938 0.42-0.938 0.938v3.75c0 0.518 0.42 0.937 0.938 0.937h3.75c0.518 0 0.938-0.42 0.938-0.937v-3.75c0-0.518-0.42-0.938-0.938-0.938zM9.438 26.375h-1.875v-1.875h1.875v1.875z"></path>
<path fill="#52555f" style="fill: var(--color4, #52555f)" d="M17.875 15.125h-3.75c-0.518 0-0.938 0.42-0.938 0.938v3.75c0 0.518 0.42 0.938 0.938 0.938h3.75c0.518 0 0.937-0.42 0.937-0.938v-3.75c0-0.518-0.42-0.938-0.937-0.938zM16.937 18.875h-1.875v-1.875h1.875v1.875z"></path>
<path fill="#52555f" style="fill: var(--color4, #52555f)" d="M17.875 22.625h-3.75c-0.518 0-0.938 0.42-0.938 0.938v3.75c0 0.518 0.42 0.937 0.938 0.937h3.75c0.518 0 0.937-0.42 0.937-0.937v-3.75c0-0.518-0.42-0.938-0.937-0.938zM16.937 26.375h-1.875v-1.875h1.875v1.875z"></path>
<path fill="#52555f" style="fill: var(--color4, #52555f)" d="M25.375 15.125h-3.75c-0.518 0-0.937 0.42-0.937 0.938v11.25c0 0.518 0.42 0.937 0.937 0.937h3.75c0.518 0 0.937-0.42 0.937-0.937v-11.25c0-0.518-0.42-0.938-0.937-0.938zM24.437 26.375h-1.875v-9.375h1.875v9.375z"></path>
</symbol>
<symbol id="calendar" viewBox="0 0 32 32">
<path fill="#52555f" style="fill: var(--color4, #52555f)" d="M27.961 3.307h-2.099v-0.514c0-0.518-0.42-0.938-0.937-0.938s-0.937 0.42-0.937 0.938v0.514h-2.587v-0.514c0-0.518-0.42-0.938-0.938-0.938s-0.937 0.42-0.937 0.938v0.514h-2.587v-0.514c0-0.518-0.42-0.938-0.937-0.938s-0.938 0.42-0.938 0.938v0.514h-2.587v-0.514c0-0.518-0.42-0.938-0.938-0.938s-0.938 0.42-0.938 0.938v0.514h-2.587v-0.514c0-0.518-0.42-0.938-0.938-0.938s-0.938 0.42-0.938 0.938v0.514h-2.099c-2.227 0-4.039 1.812-4.039 4.039v18.758c0 2.227 1.812 4.039 4.039 4.039h23.921c2.227 0 4.039-1.812 4.039-4.039v-18.758c0-2.227-1.812-4.039-4.039-4.039zM30.125 26.105c0 1.193-0.971 2.164-2.164 2.164h-23.921c-1.193 0-2.164-0.971-2.164-2.164v-15.333h28.25v15.333zM30.125 8.897h-28.25v-1.55c0-1.193 0.971-2.164 2.164-2.164h2.099v0.362c0 0.518 0.42 0.938 0.938 0.938s0.938-0.42 0.938-0.938v-0.362h2.587v0.362c0 0.518 0.42 0.938 0.938 0.938s0.938-0.42 0.938-0.938v-0.362h2.587v0.362c0 0.518 0.42 0.938 0.938 0.938s0.937-0.42 0.937-0.938v-0.362h2.587v0.362c0 0.518 0.42 0.938 0.937 0.938s0.938-0.42 0.938-0.938v-0.362h2.587v0.362c0 0.518 0.42 0.938 0.937 0.938s0.937-0.42 0.937-0.938v-0.362h2.099c1.193 0 2.164 0.971 2.164 2.164v1.55z"></path>
<path fill="#52555f" style="fill: var(--color4, #52555f)" d="M10.451 12.771h-3.699c-0.518 0-0.938 0.42-0.938 0.938v3.828c0 0.518 0.42 0.937 0.938 0.937h3.699c0.518 0 0.938-0.42 0.938-0.937v-3.828c0-0.518-0.42-0.938-0.938-0.938zM9.513 16.598h-1.824v-1.952h1.824v1.952z"></path>
<path fill="#52555f" style="fill: var(--color4, #52555f)" d="M17.85 12.771h-3.699c-0.518 0-0.938 0.42-0.938 0.938v3.828c0 0.518 0.42 0.937 0.938 0.937h3.699c0.518 0 0.937-0.42 0.937-0.937v-3.828c0-0.518-0.42-0.938-0.937-0.938zM16.912 16.598h-1.824v-1.952h1.824v1.952z"></path>
<path fill="#52555f" style="fill: var(--color4, #52555f)" d="M25.248 12.771h-3.699c-0.518 0-0.937 0.42-0.937 0.938v3.828c0 0.518 0.42 0.937 0.937 0.937h3.699c0.518 0 0.937-0.42 0.937-0.937v-3.828c0-0.518-0.42-0.938-0.937-0.938zM24.311 16.598h-1.824v-1.952h1.824v1.952z"></path>
<path fill="#52555f" style="fill: var(--color4, #52555f)" d="M10.451 20.041h-3.699c-0.518 0-0.938 0.42-0.938 0.938v3.827c0 0.518 0.42 0.938 0.938 0.938h3.699c0.518 0 0.938-0.42 0.938-0.938v-3.827c0-0.518-0.42-0.938-0.938-0.938zM9.513 23.868h-1.824v-1.952h1.824v1.952z"></path>
<path fill="#52555f" style="fill: var(--color4, #52555f)" d="M17.85 20.041h-3.699c-0.518 0-0.938 0.42-0.938 0.938v3.827c0 0.518 0.42 0.938 0.938 0.938h3.699c0.518 0 0.937-0.42 0.937-0.938v-3.827c0-0.518-0.42-0.938-0.937-0.938zM16.912 23.868h-1.824v-1.952h1.824v1.952z"></path>
<path fill="#52555f" style="fill: var(--color4, #52555f)" d="M25.248 20.041h-3.699c-0.518 0-0.937 0.42-0.937 0.938v3.827c0 0.518 0.42 0.938 0.937 0.938h3.699c0.518 0 0.937-0.42 0.937-0.938v-3.827c0-0.518-0.42-0.938-0.937-0.938zM24.311 23.868h-1.824v-1.952h1.824v1.952z"></path>
</symbol>
<symbol id="reports" viewBox="0 0 32 32">
<path fill="#52555f" style="fill: var(--color4, #52555f)" d="M0 9.6h6.857v22.4h-6.857v-22.4zM12.8 0h6.4v32h-6.4v-32zM25.6 18.286h6.4v13.714h-6.4v-13.714z"></path>
</symbol>
<symbol id="close" viewBox="0 0 32 32">
<path fill="none" stroke="#52555f" stroke-width="4.5714" stroke-miterlimit="4" stroke-linecap="butt" stroke-linejoin="miter" style="stroke: var(--color4, #52555f)" d="M2.286 2.286l27.429 27.429"></path>
<path fill="none" stroke="#52555f" stroke-width="4.5714" stroke-miterlimit="4" stroke-linecap="butt" stroke-linejoin="miter" style="stroke: var(--color4, #52555f)" d="M2.286 29.714l27.429-27.429"></path>
</symbol>
<symbol id="income" viewBox="0 0 56 56">
<path d="M13.423 33.855a.82.82 0 0 0-.82-.82H4.648a.82.82 0 0 0-.82.82v5.304c0 .453.367.82.82.82h7.955a.82.82 0 0 0 .82-.82v-5.303zm-1.64 4.483H5.468v-3.662h6.315v3.662zM32.933 38.212h4.419a.82.82 0 1 0 0-1.64h-4.42a.82.82 0 1 0 0 1.64zM32.933 34.676h4.419a.82.82 0 1 0 0-1.64h-4.42a.82.82 0 1 0 0 1.64z"/>
<path d="M40.888 42.704a.82.82 0 0 0-.82.82v10.551a.285.285 0 0 1-.285.285H2.217a.285.285 0 0 1-.284-.285V35.922a.82.82 0 1 0-1.641 0v18.153c0 1.062.864 1.926 1.925 1.926h37.566a1.927 1.927 0 0 0 1.925-1.926V43.524a.82.82 0 0 0-.82-.82zM39.783 27.843H26.24v-4.161c4.238-1.98 7.181-6.283 7.181-11.26C33.421 5.571 27.85 0 21 0c-2.377 0-4.688.674-6.682 1.949a12.452 12.452 0 0 0-4.5 5.057.82.82 0 0 0 1.476.716c1.82-3.751 5.54-6.081 9.706-6.081 5.945 0 10.78 4.836 10.78 10.78 0 5.945-4.835 10.781-10.78 10.781-5.945 0-10.78-4.836-10.78-10.78 0-.42.023-.842.071-1.255a.82.82 0 1 0-1.63-.189c-.054.476-.082.962-.082 1.444 0 4.977 2.943 9.28 7.181 11.26v4.16H2.217a1.927 1.927 0 0 0-1.925 1.926v2.306a.82.82 0 1 0 1.64 0v-2.306c0-.157.128-.285.285-.285h10.677l7.489 8.56a.821.821 0 0 0 1.234 0l7.49-8.56h10.676c.157 0 .284.128.284.285v9.906a.82.82 0 1 0 1.64 0v-9.906a1.927 1.927 0 0 0-1.924-1.925zM21 36.256l-5.926-6.773h1.506a.82.82 0 0 0 .82-.82V24.31a12.38 12.38 0 0 0 3.6.532c1.251 0 2.46-.187 3.599-.532v4.352c0 .453.367.82.82.82h1.507L21 36.256z"/>
<path d="M4.648 48.045h2.21a.82.82 0 1 0 0-1.64h-2.21a.82.82 0 1 0 0 1.64zM12.603 46.404h-2.21a.82.82 0 1 0 0 1.64h2.21a.82.82 0 1 0 0-1.64zM18.348 48.045a.82.82 0 1 0 0-1.64h-2.21a.82.82 0 1 0 0 1.64h2.21zM24.093 48.045a.82.82 0 1 0 0-1.64h-2.21a.82.82 0 1 0 0 1.64h2.21zM4.648 52.465h8.839a.82.82 0 1 0 0-1.64h-8.84a.82.82 0 1 0 0 1.64zM27.693 49.434c0 1.671 1.36 3.03 3.03 3.03.87 0 1.656-.37 2.21-.96.553.59 1.338.96 2.21.96 1.67 0 3.03-1.359 3.03-3.03 0-1.67-1.36-3.03-3.03-3.03-.872 0-1.657.37-2.21.96a3.022 3.022 0 0 0-2.21-.96c-1.67 0-3.03 1.36-3.03 3.03zm7.45-1.39a1.39 1.39 0 0 1 0 2.779 1.39 1.39 0 0 1-1.39-1.389c0-.766.623-1.39 1.39-1.39zm-3.03 1.39a1.39 1.39 0 0 1-2.779 0c0-.766.623-1.39 1.389-1.39s1.39.624 1.39 1.39zM18.282 16.715a.82.82 0 0 0-.898 1.372c1.061.694 1.785.9 2.721.952v.904a.82.82 0 1 0 1.641 0v-.97c1.86-.361 2.946-1.893 3.186-3.323.309-1.837-.652-3.434-2.448-4.07-.243-.085-.49-.175-.738-.269V7.377c.626.147.999.464 1.031.492a.82.82 0 0 0 1.107-1.21c-.047-.044-.84-.758-2.138-.951V4.9a.82.82 0 1 0-1.64 0v.87a5.08 5.08 0 0 0-.382.099c-1.182.356-2.066 1.368-2.305 2.641-.22 1.16.152 2.279.969 2.92.434.34.976.652 1.717.982v4.984c-.646-.046-1.09-.203-1.823-.681zm1.119-6.576c-.333-.261-.475-.77-.37-1.325.094-.5.426-1.103 1.075-1.342v3.116a5.007 5.007 0 0 1-.705-.45zm2.536 2.989c1.537.543 1.443 1.86 1.377 2.25-.128.764-.662 1.575-1.568 1.893V13.06l.191.069z"/>
</symbol>
<symbol id="salary" viewBox="0 0 56 56">
<path d="M26.973 22.662c-.19-.068-.385-.138-.58-.21v-3.53a4.785 4.785 0 0 1 1.114.627 1.094 1.094 0 0 0 1.39-1.689 6.834 6.834 0 0 0-2.504-1.226v-.536a1.094 1.094 0 0 0-2.187 0v.485a4.474 4.474 0 0 0-.35.088c-1.257.38-2.165 1.439-2.428 2.835-.255 1.357.187 2.71 1.127 3.447.428.337.951.645 1.65.966v4.626c-.494-.07-.866-.238-1.458-.625a1.094 1.094 0 1 0-1.197 1.83c1.039.68 1.771.919 2.656.995v.68a1.094 1.094 0 0 0 2.187 0v-.785c1.82-.46 2.985-2.015 3.243-3.547.331-1.97-.739-3.751-2.663-4.431zm-2.767-1.218c-.109-.07-.21-.14-.302-.212-.295-.231-.429-.774-.326-1.32.034-.183.174-.727.628-1.016v2.548zm3.273 5.287a2.264 2.264 0 0 1-1.086 1.571v-3.52c1.187.5 1.158 1.52 1.086 1.949z"/>
<path d="m51.79 23.369-6.946-4.588V1.094C44.844.49 44.354 0 43.75 0H17.5c-.604 0-1.094.49-1.094 1.094V5.25H12.25c-.604 0-1.094.49-1.094 1.094V18.78L4.21 23.37a1.094 1.094 0 0 0-.491.912v30.625c0 .604.49 1.094 1.094 1.094h18.265a1.094 1.094 0 0 0 0-2.188H7.453L23.4 37.867l3.998 2.64a1.093 1.093 0 0 0 1.206 0l3.998-2.64 15.946 15.947H32.922a1.094 1.094 0 0 0 0 2.187h18.266c.603 0 1.093-.49 1.093-1.094V24.281c0-.367-.184-.71-.49-.912zm-2.587.912-4.36 2.879v-5.757l4.36 2.878zM18.593 2.188h24.063v26.416l-3.062 2.023V6.344c0-.604-.49-1.094-1.094-1.094H18.594V2.187zm-7.437 19.215v5.757L6.797 24.28l4.36-2.878zm-5.25 30.863V26.314l15.63 10.322-15.63 15.63zM28 38.283l-14.656-9.679V7.438h24.062V32.07L28 38.283zm22.094-11.969v25.952l-15.63-15.63 15.63-10.322z"/>
<path d="M28 53.813c-.288 0-.57.116-.773.32-.204.203-.32.486-.32.773 0 .288.116.57.32.773.203.204.485.321.773.321.288 0 .57-.117.773-.32.204-.204.32-.486.32-.774 0-.287-.116-.57-.32-.773a1.101 1.101 0 0 0-.773-.32z"/>
</symbol>
<symbol id="other" viewBox="0 0 56 56"  >
  <path d="M55.993 39.084C54.32 25.666 41.8 23.679 38.267 23.385V11.2c0-.084-.118-8.4-10.267-8.4-10.15 0-10.267 8.316-10.267 8.4v12.186C14.2 23.678 1.685 25.666.007 39.084c0 .019-.007.093-.007.116v3.733c0 .516.418.934.933.934H5.6v1.866H2.8a.933.933 0 0 0-.933.934c0 2.259 1.365 6.533 6.533 6.533s6.533-4.274 6.533-6.534a.933.933 0 0 0-.933-.933h-2.8v-1.866h14v1.866h-2.8a.933.933 0 0 0-.933.934c0 2.259 1.365 6.533 6.533 6.533s6.533-4.274 6.533-6.534a.933.933 0 0 0-.933-.933h-2.8v-1.866h14v1.866H42a.933.933 0 0 0-.933.934c0 2.259 1.365 6.533 6.533 6.533s6.533-4.274 6.533-6.534a.933.933 0 0 0-.933-.933h-2.8v-1.866h4.667a.933.933 0 0 0 .933-.934V39.2c0-.022 0-.094-.007-.116ZM19.6 11.2c0-.267.093-6.534 8.4-6.534 8.249 0 8.4 6.27 8.4 6.534v12.133h-1.867v-5.6h-1.866v5.6H19.6V11.2Zm-8.773 15.81a21.66 21.66 0 0 1 7.84-1.81h18.666a21.66 21.66 0 0 1 7.84 1.81 14.523 14.523 0 0 1 8.808 11.256H2.02a14.523 14.523 0 0 1 8.808-11.256ZM8.4 51.333A4.281 4.281 0 0 1 3.831 47.6h9.133A4.304 4.304 0 0 1 8.4 51.333Zm.933-5.6H7.467v-1.866h1.866v1.866ZM28 51.333a4.281 4.281 0 0 1-4.569-3.733h9.133A4.304 4.304 0 0 1 28 51.333Zm.933-5.6h-1.866v-1.866h1.866v1.866Zm18.667 5.6a4.28 4.28 0 0 1-4.573-3.733h9.137a4.304 4.304 0 0 1-4.564 3.733Zm.933-5.6h-1.866v-1.866h1.866v1.866Zm5.6-3.733H1.867v-1.867h52.266V42Z"/>
  <path d="M28 27.067a4.667 4.667 0 1 0 0 9.334 4.667 4.667 0 0 0 0-9.334Zm0 7.467a2.8 2.8 0 1 1 0-5.6 2.8 2.8 0 0 1 0 5.6Z"  />
  <path d="M29.867 31.733a1.867 1.867 0 1 1-3.734 0 1.867 1.867 0 0 1 3.734 0ZM32.667 14h1.866v1.867h-1.866V14Zm0-2.8v.933h1.866V11.2c0-.478-.187-4.667-6.533-4.667V8.4c4.33 0 4.667 2.146 4.667 2.8ZM19.6 30.8h1.867v1.866H19.6V30.8Zm-3.733 0h1.866v1.866h-1.866V30.8Zm18.666 0H36.4v1.866h-1.867V30.8Zm3.734 0h1.866v1.866h-1.866V30.8Z"  />
</symbol>
<symbol id="education" width="56" height="42"  >
  <path d="M54.914 4.255h-3.69v-1.26a1.086 1.086 0 0 0-.782-1.085A30.575 30.575 0 0 0 42.616.91c-4.342 0-10.258.977-14.632 5.428C23.642 1.845 17.682.91 13.35.91a30.576 30.576 0 0 0-7.826.999c-.479.14-.801.587-.781 1.085v1.249H1.085C.486 4.244 0 4.73 0 5.329V40a1.086 1.086 0 0 0 1.617.945c.109-.055 10.964-5.992 26.117-2.171h.261c.086.01.174.01.26 0 15.197-3.854 26.052 2.073 26.117 2.17A1.086 1.086 0 0 0 56 40.01V5.34c0-.6-.486-1.085-1.086-1.085ZM2.171 38.274V6.424h2.594V33.65a1.086 1.086 0 0 0 1.249 1.086 47.52 47.52 0 0 1 6.784-.543c3.146-.054 6.28.419 9.27 1.4A39.904 39.904 0 0 0 2.17 38.273Zm10.627-6.242a47.76 47.76 0 0 0-5.905.38V3.852a29.938 29.938 0 0 1 6.437-.716c4.06 0 9.66.934 13.546 5.32l.033 27.039c-2.258-1.477-6.665-3.463-14.111-3.463ZM29.08 8.455c3.886-4.342 9.487-5.319 13.547-5.319a30.07 30.07 0 0 1 6.437.717v28.559a47.752 47.752 0 0 0-5.873-.39c-7.403 0-11.82 1.986-14.11 3.462V8.455Zm24.738 29.819a39.912 39.912 0 0 0-19.94-2.682 28.223 28.223 0 0 1 9.313-1.4c2.286.013 4.568.19 6.828.532a1.086 1.086 0 0 0 1.248-1.085V6.425h2.595l-.044 31.848Z"/>
</symbol>
<symbol id="hobbies" viewBox="0 0 56 56" >
  <g clip-path="url(#a)"  >
    <path d="M54.285 23.651h-3.338c-.618 0-1.163.318-1.482.798-2.552-.266-2.892-.675-3.167-1.009a5.249 5.249 0 0 0-1.323-1.143l-7.67-4.658c-1.561-3.628-4.174-5.897-6.113-7.168a2.672 2.672 0 0 1-1.205-2.244c0-.536.158-1.055.457-1.5l1.907-2.839c.38-.565.511-1.243.37-1.91A2.498 2.498 0 0 0 30.28 0h-9.061a2.495 2.495 0 0 0-2.072 3.888l1.907 2.839c.3.445.457.964.457 1.5 0 .91-.45 1.749-1.206 2.244-2.873 1.884-9.293 7.437-6.866 18.29 1.354 6.054 2.4 10.32 3.029 12.374H2.94c-1.116 0-2.091.793-2.319 1.885L.16 45.239c-.146.701.029 1.422.48 1.978a2.36 2.36 0 0 0 1.838.874h46.54a2.36 2.36 0 0 0 1.838-.874 2.36 2.36 0 0 0 .481-1.978l-.462-2.22a2.379 2.379 0 0 0-2.319-1.884H35.03c.188-.614.415-1.431.678-2.443h.89a26.1 26.1 0 0 0 7.698-1.16l5.098-.642a1.78 1.78 0 0 0 1.553.914h3.338a1.78 1.78 0 0 0 1.779-1.779V25.43c0-.98-.798-1.779-1.779-1.779ZM20.381 2.32a.854.854 0 0 1 .837-.678h9.061a.853.853 0 0 1 .837.678.851.851 0 0 1-.127.654l-.943 1.405H21.45l-.944-1.405a.847.847 0 0 1-.126-.654Zm.823 9.524a4.308 4.308 0 0 0 1.947-3.616c0-.782-.21-1.54-.608-2.208h6.411a4.31 4.31 0 0 0-.608 2.208c0 1.465.728 2.816 1.947 3.616.503.33 1.055.733 1.62 1.217H19.589a15.763 15.763 0 0 1 1.616-1.217Zm28.065 31.512.462 2.219a.717.717 0 0 1-.148.608.717.717 0 0 1-.565.268H2.478a.718.718 0 0 1-.564-.269.717.717 0 0 1-.148-.607l.462-2.22c.07-.335.37-.578.713-.578h45.615c.343 0 .642.243.713.579Zm-15.96-2.22h-15.12c-.338-1.007-1.196-3.999-3.15-12.732-.824-3.682-.627-7.016.582-9.933h3.021a.82.82 0 1 0 0-1.64h-2.208c.463-.799.978-1.506 1.513-2.129h15.609c.536.625 1.05 1.332 1.51 2.128H21.928a.82.82 0 1 0 0 1.64h10.87a2.612 2.612 0 0 0-.117 1.619c.168.682.591 1.259 1.191 1.622l1.41.857h-9.117c-1.448 0-2.622 1.113-2.672 2.535-.014.379.052.747.19 1.086h-.842a2.61 2.61 0 0 0-1.893.804 2.623 2.623 0 0 0 1.078 4.321 2.634 2.634 0 0 0 2.377 3.758h1.242a2.634 2.634 0 0 0 2.437 3.621h5.93c-.345 1.305-.567 2.036-.704 2.443Zm10.71-5.221a.833.833 0 0 0-.141.03 24.454 24.454 0 0 1-7.28 1.108h-8.515a.991.991 0 0 1 0-1.981h5.377a.82.82 0 0 0 0-1.64h-9.057a.992.992 0 0 1 0-1.981h9.057a.82.82 0 1 0 0-1.641H22.884c-.551 0-1.014-.428-1.033-.954a.987.987 0 0 1 .99-1.027H33.46a.82.82 0 0 0 0-1.64h-7.338a.983.983 0 0 1-.713-.303.986.986 0 0 1-.277-.725c.019-.525.482-.953 1.033-.953h11.307c.466 0 .864-.302.99-.75a1.018 1.018 0 0 0-.456-1.156l-3.283-1.994a.983.983 0 0 1-.448-.611.992.992 0 0 1 1.474-1.084l8.375 5.087c.345.21.651.475.91.787.67.81 1.532 1.297 4.134 1.581v9.197l-5.149.65Zm10.404.111a.138.138 0 0 1-.138.138h-3.338a.139.139 0 0 1-.138-.138V25.43c0-.076.062-.138.138-.138h3.338c.076 0 .138.062.138.138v10.595ZM39.334 53.354l-4.272-3.438a.82.82 0 0 0-1.029 1.279l3.935 3.164H13.529l3.942-3.17a.82.82 0 1 0-1.028-1.279l-4.28 3.443a1.472 1.472 0 0 0-.472 1.654c.213.603.764.993 1.404.993h25.307c.64 0 1.19-.39 1.403-.993a1.47 1.47 0 0 0-.47-1.653Z"/>
  </g>
  <defs>
    <clipPath>
      <path d="M0 0h56v56H0z"/>
    </clipPath>
  </defs>
</symbol>
<symbol id="communal" viewBox="0 0 56 56"  >
  <path d="M53.688 0H2.312C1.523 0 .878.645.878 1.434c0 .788.645 1.434 1.434 1.434h3.094V54.53c0 .526.287 1.016.753 1.267.466.25 1.028.227 1.47-.072l6.225-4.146 6.248 4.158a1.426 1.426 0 0 0 1.59 0l6.224-4.146 6.25 4.158a1.426 1.426 0 0 0 1.588 0l6.225-4.146 6.249 4.158c.239.155.514.239.788.239.227 0 .466-.06.681-.167.466-.251.753-.741.753-1.267l-.024-51.663h3.262c.789 0 1.434-.645 1.434-1.433 0-.789-.645-1.47-1.434-1.47Zm-6.093 51.854-4.815-3.202a1.426 1.426 0 0 0-1.59 0l-6.224 4.158-6.25-4.158a1.426 1.426 0 0 0-1.588 0l-6.225 4.146-6.249-4.146a1.425 1.425 0 0 0-1.589 0l-4.791 3.19V2.856h39.309l.012 48.998Z"  />
  <path d="M14.87 22.892h15.018c.788 0 1.433-.645 1.433-1.433 0-.789-.645-1.434-1.433-1.434H14.869c-.788 0-1.434.645-1.434 1.434a1.43 1.43 0 0 0 1.434 1.433ZM14.87 27.875h11.254c.789 0 1.434-.645 1.434-1.434 0-.788-.645-1.434-1.434-1.434H14.87c-.788 0-1.434.645-1.434 1.434a1.43 1.43 0 0 0 1.434 1.434ZM37.391 22.892h3.752c.788 0 1.434-.645 1.434-1.433 0-.789-.646-1.434-1.434-1.434H37.39c-.788 0-1.434.645-1.434 1.434a1.43 1.43 0 0 0 1.434 1.433ZM37.391 27.875h3.752c.788 0 1.434-.645 1.434-1.434 0-.788-.646-1.434-1.434-1.434H37.39c-.788 0-1.434.645-1.434 1.434a1.43 1.43 0 0 0 1.434 1.434ZM14.87 11.386h15.018c.788 0 1.433-.645 1.433-1.433 0-.789-.645-1.434-1.433-1.434H14.869c-.788 0-1.434.645-1.434 1.434a1.43 1.43 0 0 0 1.434 1.434ZM14.87 16.357h11.254c.789 0 1.434-.645 1.434-1.434 0-.789-.645-1.434-1.434-1.434H14.87c-.788 0-1.434.645-1.434 1.434a1.43 1.43 0 0 0 1.434 1.434ZM37.391 11.386h3.752c.788 0 1.434-.645 1.434-1.433 0-.789-.646-1.434-1.434-1.434H37.39c-.788 0-1.434.645-1.434 1.434a1.43 1.43 0 0 0 1.434 1.434ZM37.391 16.357h3.752c.788 0 1.434-.645 1.434-1.434 0-.789-.646-1.434-1.434-1.434H37.39c-.788 0-1.434.645-1.434 1.434a1.43 1.43 0 0 0 1.434 1.434ZM14.87 34.541h15.018c.788 0 1.433-.645 1.433-1.433 0-.789-.645-1.434-1.433-1.434H14.869c-.788 0-1.434.645-1.434 1.434a1.43 1.43 0 0 0 1.434 1.433ZM14.87 39.512h11.254c.789 0 1.434-.646 1.434-1.434 0-.789-.645-1.434-1.434-1.434H14.87c-.788 0-1.434.645-1.434 1.434a1.43 1.43 0 0 0 1.434 1.434ZM37.391 34.541h3.752c.788 0 1.434-.645 1.434-1.433 0-.789-.646-1.434-1.434-1.434H37.39c-.788 0-1.434.645-1.434 1.434a1.43 1.43 0 0 0 1.434 1.433ZM37.391 39.512h3.752c.788 0 1.434-.646 1.434-1.434 0-.789-.646-1.434-1.434-1.434H37.39c-.788 0-1.434.645-1.434 1.434a1.43 1.43 0 0 0 1.434 1.434Z"  />
</symbol>
<symbol id="google_icon" viewBox="0 0 32 32">
<path fill="#2196f3" style="fill: var(--color1, #2196f3)" d="M30.567 13.038c0.136 0 0.246 0.115 0.246 0.258v2.704c0 1.012-0.090 2.002-0.262 2.962-1.331 7.457-7.598 13.092-15.111 13.038-8.43-0.061-15.176-7.2-15.158-16.036 0.019-8.82 6.846-15.964 15.265-15.964 4.125 0 7.867 1.715 10.615 4.501 0.099 0.101 0.102 0.266 0.004 0.369l-3.65 3.826c-0.094 0.098-0.246 0.101-0.342 0.005-1.725-1.721-4.058-2.777-6.627-2.777-5.305 0-9.577 4.446-9.614 10.007-0.036 5.597 4.282 10.146 9.614 10.146 4.326 0 7.985-2.995 9.191-7.115h-8.945c-0.136 0-0.246-0.115-0.246-0.258v-5.408c0-0.142 0.11-0.258 0.246-0.258l14.774 0z"></path>
<path fill="#1e88e5" style="fill: var(--color2, #1e88e5)" d="M30.567 13.038h-1.843c0.136 0 0.246 0.115 0.246 0.258v2.704c0 1.012-0.090 2.002-0.262 2.962-1.27 7.114-7.033 12.57-14.083 13.009 0.27 0.017 0.541 0.026 0.815 0.028 7.513 0.054 13.78-5.581 15.111-13.038 0.172-0.96 0.262-1.95 0.262-2.962v-2.704c0-0.142-0.11-0.258-0.246-0.258z"></path>
<path fill="#f44336" style="fill: var(--color3, #f44336)" d="M6.815 11.78l-4.636-3.511c2.601-4.931 7.613-8.269 13.368-8.269 4.125 0 7.867 1.715 10.615 4.501 0.099 0.101 0.102 0.266 0.004 0.369l-3.65 3.826c-0.094 0.098-0.245 0.101-0.342 0.005-1.724-1.721-4.058-2.777-6.627-2.777-3.872 0-7.209 2.399-8.732 5.857z"></path>
<path fill="#e53935" style="fill: var(--color4, #e53935)" d="M5.477 10.767l1.338 1.014c1.39-3.156 4.292-5.429 7.732-5.802 0.026-0.003 0.051-0.006 0.077-0.009-0.303-0.030-0.61-0.046-0.92-0.046-3.498 0-6.546 1.933-8.228 4.843z"></path>
<path fill="#e53935" style="fill: var(--color4, #e53935)" d="M24.319 4.501c0.099 0.101 0.102 0.266 0.004 0.369l-2.962 3.105c0.284 0.226 0.555 0.468 0.813 0.726 0.096 0.096 0.248 0.094 0.342-0.005l3.65-3.826c0.098-0.102 0.095-0.268-0.004-0.369-2.748-2.786-6.49-4.501-10.615-4.501-0.31 0-0.617 0.011-0.922 0.030 3.759 0.235 7.152 1.894 9.694 4.471z"></path>
<path fill="#4caf50" style="fill: var(--color5, #4caf50)" d="M26.745 26.874c-2.788 3.153-6.773 5.126-11.198 5.126-5.976 0-11.151-3.6-13.656-8.844l4.733-3.4c1.42 3.704 4.881 6.32 8.923 6.32 2.537 0 4.844-1.030 6.562-2.713l4.636 3.51z"></path>
<path fill="#43a047" style="fill: var(--color6, #43a047)" d="M6.624 19.756l-1.396 1.003c1.621 3.165 4.809 5.318 8.476 5.318 0.31 0 0.617-0.016 0.919-0.046-3.64-0.364-6.689-2.855-8-6.274z"></path>
<path fill="#43a047" style="fill: var(--color6, #43a047)" d="M15.547 32c4.425 0 8.41-1.973 11.198-5.126l-1.135-0.86c-2.618 3.414-6.544 5.679-10.982 5.957 0.304 0.019 0.611 0.029 0.919 0.029z"></path>
<path fill="#ffc107" style="fill: var(--color7, #ffc107)" d="M5.934 16c0 1.328 0.245 2.595 0.69 3.756l-4.733 3.4c-1.030-2.153-1.609-4.584-1.609-7.156 0-2.804 0.688-5.439 1.897-7.731l4.636 3.511c-0.566 1.283-0.881 2.713-0.881 4.22z"></path>
<path fill="#ffb300" style="fill: var(--color8, #ffb300)" d="M5.228 20.759l1.396-1.003c-0.445-1.161-0.69-2.429-0.69-3.756 0-1.507 0.316-2.937 0.881-4.22l-1.338-1.014c-0.869 1.504-1.373 3.269-1.386 5.164-0.011 1.747 0.402 3.392 1.137 4.829z"></path>
</symbol>
<symbol id="logo" viewBox="0 0 132 32">
<path d="M5.899 18.014l2.419-2.654 5.21 9.107h6.989l-8.267-13.643 8.267-10.824h-7.292l-5.276 7.68-2.052 3.106v-10.786h-5.897v24.467h5.899v-6.453zM33.34 22.837c0.156 0.717 0.337 1.261 0.538 1.63h5.662v-0.284c-0.493-0.885-0.749-2.165-0.772-3.832v-8.049c-0.034-1.973-0.723-3.524-2.069-4.655-1.344-1.131-3.176-1.698-5.495-1.698s-4.228 0.55-5.73 1.647c-1.491 1.097-2.234 2.526-2.234 4.286h5.662c0-1.323 0.672-1.984 2.018-1.984 1.444 0 2.167 0.836 2.167 2.504v0.96h-1.747c-2.778 0-4.896 0.503-6.353 1.512-1.457 1.007-2.184 2.498-2.184 4.469 0 1.57 0.599 2.874 1.798 3.915 1.199 1.032 2.654 1.547 4.367 1.547 1.873 0 3.328-0.655 4.371-1.967zM32.079 20.316c-0.459 0.301-1.041 0.454-1.747 0.454-0.538 0-0.979-0.156-1.327-0.471-0.322-0.301-0.522-0.729-0.522-1.203 0-0.020 0-0.041 0.001-0.061l-0 0.003c0-1.769 0.986-2.654 2.957-2.654h1.647v2.908c-0.201 0.38-0.538 0.721-1.007 1.024zM58.801 15.511c0 2.824-0.64 5.080-1.916 6.773-1.265 1.679-2.98 2.52-5.143 2.52-1.668 0-3.040-0.612-4.117-1.832v8.486h-5.662v-25.173h5.293l0.169 1.681c1.084-1.346 2.513-2.018 4.284-2.018 2.24 0 3.981 0.828 5.225 2.488 1.242 1.645 1.865 3.915 1.865 6.805v0.269zM53.139 15.157c0-3.226-0.941-4.838-2.824-4.838-1.344 0-2.24 0.48-2.69 1.444v7.159c0.493 1.009 1.4 1.513 2.724 1.513 1.803 0 2.733-1.559 2.79-4.672v-0.606zM69.169 24.804c2.040 0 3.659-0.768 4.856-2.302l0.169 1.965h5.308v-18.184h-5.696v12.757c-0.548 0.93-1.472 1.393-2.773 1.393-1.512 0-2.268-0.777-2.268-2.334v-11.814h-5.662v11.78c0 2.174 0.508 3.842 1.528 5.007 1.030 1.154 2.541 1.732 4.536 1.732zM92.141 19.358c0-0.482-0.252-0.866-0.757-1.16-0.504-0.29-1.461-0.593-2.872-0.907-1.412-0.312-2.579-0.723-3.496-1.225-0.919-0.516-1.619-1.139-2.101-1.865-0.453-0.684-0.723-1.524-0.723-2.428 0-0.027 0-0.053 0.001-0.080l-0 0.004c0-1.67 0.689-3.042 2.067-4.119 1.158-0.913 2.615-1.442 4.371-1.587v-4.13h2.699v4.181c1.645 0.2 3.017 0.712 4.122 1.534 1.455 1.088 2.184 2.515 2.184 4.286h-5.679c0-1.457-0.768-2.184-2.302-2.184-0.022-0.001-0.048-0.001-0.074-0.001-0.541 0-1.037 0.19-1.426 0.507l0.004-0.003c-0.369 0.279-0.604 0.716-0.604 1.209 0 0.006 0 0.013 0 0.019v-0.001c0 0.504 0.245 0.913 0.74 1.225 0.491 0.314 1.276 0.572 2.353 0.774 1.109 0.198 2.069 0.449 2.999 0.765l-0.143-0.042c2.733 0.941 4.1 2.628 4.1 5.058 0 1.656-0.738 3.008-2.217 4.051-1.103 0.783-2.455 1.272-4.053 1.466v4.145h-2.699v-4.092c-1.151-0.091-2.214-0.376-3.187-0.822l0.058 0.024c-1.222-0.559-2.174-1.321-2.857-2.285-0.683-0.962-1.024-1.976-1.024-3.042h5.293c0.021 0.841 0.301 1.457 0.84 1.848 0.538 0.382 1.227 0.572 2.067 0.572 0.772 0 1.35-0.156 1.732-0.471 0.359-0.276 0.588-0.706 0.588-1.189 0-0.013-0-0.027-0.001-0.040l0 0.002zM108.744 6.285v-4.521h-5.662v4.523h-2.319v3.932h2.319v9.024c0 1.871 0.465 3.266 1.393 4.184 0.932 0.919 2.372 1.378 4.32 1.378 1.111 0 2.174-0.162 3.192-0.489v-4.047c-0.388 0.064-0.834 0.101-1.29 0.101-0.043 0-0.086-0-0.129-0.001l0.006 0c-0.727 0-1.214-0.136-1.461-0.403-0.247-0.269-0.371-0.745-0.371-1.431v-8.316h2.993v-3.934h-2.993zM126.104 24.469c-0.203-0.371-0.382-0.915-0.538-1.632-1.043 1.312-2.498 1.967-4.369 1.967-1.713 0-3.172-0.516-4.369-1.547-1.199-1.041-1.8-2.345-1.8-3.915 0-1.971 0.728-3.462 2.184-4.469 1.459-1.009 3.576-1.513 6.353-1.513h1.749v-0.958c0-1.668-0.723-2.504-2.168-2.504-1.344 0-2.016 0.661-2.016 1.984h-5.666c0-1.76 0.745-3.189 2.236-4.286 1.5-1.097 3.411-1.647 5.73-1.647s4.151 0.565 5.496 1.698c1.342 1.131 2.033 2.682 2.065 4.655v8.049c0.023 1.67 0.282 2.946 0.774 3.832v0.284h-5.662zM122.558 20.77c0.706 0 1.288-0.151 1.747-0.452 0.471-0.305 0.808-0.646 1.009-1.026v-2.908h-1.647c-1.971 0-2.957 0.885-2.957 2.654 0 0.516 0.173 0.937 0.52 1.261 0.348 0.314 0.791 0.471 1.329 0.471z"></path>
</symbol>
</defs>
</svg>
